# xmcd CD database file
#
# Track frame offsets:
#	150
#	10290
#	22580
#	34635
#	45802
#	59500
#	73412
#	86285
#	98242
#	111115
#	125032
#	137572
#	150572
#	163807
#	175262
#	186597
#	201860
#	214522
#	226247
#	238850
#	251642
#	264217
#	276437
#	288627
#	297705
#	308985
#	322507
#	335410
#	347092
#
# Disc length: 4718 seconds
#
# Revision: 0
# Processed by: cddbd v1.4PL0 Copyright (c) Steve Scherf et al.
# Submitted via: CDex 1.50Beta7
#
DISCID=aa126c1d
DTITLE=Bill Monroe - Blue Moon Of Kentucky 1936-1949 [CD3]
DYEAR=2002
DGENRE=Country
TTITLE0=When Our Lord Shall Come Again (1938)
TTITLE1=Mule Skinner Blues (1940)
TTITLE2=No Letter in the Mail (1941)
TTITLE3=Cryin' Holy Unto The Lord (1941)
TTITLE4=Six White Horses (1940)
TTITLE5=Dog House Blues (1941)
TTITLE6=I Wonder If You Feel the Way I Do (1941)
TTITLE7=Katy Hill - instrumental (1941)
TTITLE8=Tennessee Blues (1941)
TTITLE9=Shake My Mother's Hand for Me (1942)
TTITLE10=Were You There¿ (1942)
TTITLE11=Blue Yodel, No. 7 (1941)
TTITLE12=The Coupon Song (1942)
TTITLE13=Orange Blossom Special (1942)
TTITLE14=Honky Tonk Swing - instrumental (1942)
TTITLE15=In the Pines (1941)
TTITLE16=Back Up and Push - instrumental (1942)
TTITLE17=Rocky Road Blues (1945)
TTITLE18=Kentucky Waltz (1945)
TTITLE19=True Life Blues (1946)
TTITLE20=Nobody Loves Me (1984)
TTITLE21=Goodbye Old Pal (1947)
TTITLE22=Footprints in the Snow (1946)
TTITLE23=I'll Have a New Life (2002)
TTITLE24=Blue Grass Special - instrumental (1947)
TTITLE25=Come Back to Me in My Dreams (1992)
TTITLE26=Heavy Traffic Ahead (1949)
TTITLE27=Why Did You Wander¿ (1976)
TTITLE28=Blue Moon of Kentucky (2002)
EXTD=YEAR: 2002
EXTT0=
EXTT1=
EXTT2=
EXTT3=
EXTT4=
EXTT5=
EXTT6=
EXTT7=
EXTT8=
EXTT9=
EXTT10=
EXTT11=
EXTT12=
EXTT13=
EXTT14=
EXTT15=
EXTT16=
EXTT17=
EXTT18=
EXTT19=
EXTT20=
EXTT21=
EXTT22=
EXTT23=
EXTT24=
EXTT25=
EXTT26=
EXTT27=
EXTT28=
PLAYORDER=
